<svg width="33" height="33" viewBox="0 0 33 33" fill="none" xmlns="http://www.w3.org/2000/svg">
<g clip-path="url(#clip0_2_1620)">
<path d="M15.8125 16.5C15.433 16.5 15.125 16.192 15.125 15.8125V8.9375C15.125 8.558 15.433 8.25 15.8125 8.25H17.875C19.3916 8.25 20.625 9.48337 20.625 11C20.625 12.5166 19.3916 13.75 17.875 13.75H16.5V15.8125C16.5 16.192 16.192 16.5 15.8125 16.5ZM16.5 12.375H17.875C18.634 12.375 19.25 11.7576 19.25 11C19.25 10.2424 18.634 9.625 17.875 9.625H16.5V12.375Z" fill="#B50097"/>
<path d="M19.9375 16.5001C19.7615 16.5001 19.5855 16.4327 19.4508 16.2993L16.7008 13.5493C16.4326 13.2812 16.4326 12.8453 16.7008 12.5772C16.9689 12.3091 17.4048 12.3091 17.6729 12.5772L20.4229 15.3272C20.691 15.5953 20.691 16.0312 20.4229 16.2993C20.2895 16.4327 20.1135 16.5001 19.9375 16.5001Z" fill="#B50097"/>
<path d="M9.625 16.5C9.32112 16.5 9.05437 16.3006 8.96637 16.0105L6.90387 9.13547C6.79387 8.77247 7.00012 8.38884 7.36449 8.27884C7.7275 8.17159 8.11112 8.37647 8.22112 8.73947L9.625 13.42L11.0289 8.74084C11.1375 8.37647 11.5239 8.17297 11.8841 8.28022C12.2485 8.39022 12.4547 8.77247 12.3447 9.13684L10.2822 16.0118C10.1956 16.3006 9.92887 16.5 9.625 16.5Z" fill="#B50097"/>
<path d="M25.4375 12.375C24.3004 12.375 23.375 11.4496 23.375 10.3125C23.375 9.17537 24.3004 8.25 25.4375 8.25C26.5746 8.25 27.5 9.17537 27.5 10.3125C27.5 11.4496 26.5746 12.375 25.4375 12.375ZM25.4375 9.625C25.0594 9.625 24.75 9.933 24.75 10.3125C24.75 10.692 25.0594 11 25.4375 11C25.8156 11 26.125 10.692 26.125 10.3125C26.125 9.933 25.8156 9.625 25.4375 9.625Z" fill="#B50097"/>
<path d="M29.5625 23.375H20.8587C20.5631 23.375 20.3005 23.1853 20.2056 22.9048L19.602 21.0898C19.5071 20.8161 19.2417 20.625 18.9475 20.625H14.0525C13.7583 20.625 13.4943 20.8161 13.3939 21.1008L12.793 22.9061C12.6995 23.1853 12.4369 23.375 12.1412 23.375H3.4375C1.54138 23.375 0 21.8323 0 19.9375V7.5625C0 5.66775 1.54138 4.125 3.4375 4.125H29.5625C31.4586 4.125 33 5.66775 33 7.5625V19.9375C33 21.8323 31.4586 23.375 29.5625 23.375ZM21.3538 22H29.5625C30.6996 22 31.625 21.0746 31.625 19.9375V7.5625C31.625 6.42538 30.6996 5.5 29.5625 5.5H3.4375C2.30037 5.5 1.375 6.42538 1.375 7.5625V19.9375C1.375 21.0746 2.30037 22 3.4375 22H11.6463L12.0931 20.6553C12.3901 19.811 13.1753 19.25 14.0525 19.25H18.9489C19.8261 19.25 20.6112 19.811 20.9041 20.6456L21.3538 22Z" fill="#B50097"/>
<path d="M28.1875 5.5C27.808 5.5 27.5 5.192 27.5 4.8125V3.4375C27.5 2.30037 26.5746 1.375 25.4375 1.375H7.5625C6.42537 1.375 5.5 2.30037 5.5 3.4375V4.8125C5.5 5.192 5.192 5.5 4.8125 5.5C4.433 5.5 4.125 5.192 4.125 4.8125V3.4375C4.125 1.54275 5.66637 0 7.5625 0H25.4375C27.3336 0 28.875 1.54275 28.875 3.4375V4.8125C28.875 5.192 28.567 5.5 28.1875 5.5Z" fill="#B50097"/>
<path d="M15.125 33C14.9174 33 14.7097 32.9051 14.575 32.725C14.3481 32.4211 14.41 31.9907 14.7139 31.7625L16.731 30.25L14.7125 28.7375C14.4086 28.5092 14.3467 28.0789 14.5736 27.775C14.8032 27.4697 15.2336 27.412 15.5361 27.6375L18.2861 29.7C18.4594 29.8292 18.5611 30.0341 18.5611 30.25C18.5611 30.4658 18.4594 30.6707 18.2861 30.8L15.5361 32.8625C15.4137 32.9546 15.268 33 15.125 33Z" fill="#B50097"/>
<path d="M16.5 30.9375C15.0906 30.9375 13.6537 30.8852 12.2306 30.7848C6.31812 30.3586 0 28.9107 0 26.125C0 25.8348 0.075625 25.5365 0.224125 25.2395C0.394625 24.8985 0.809875 24.7623 1.14812 24.9328C1.48637 25.1033 1.62387 25.5158 1.45475 25.8555C1.4025 25.96 1.375 26.0507 1.375 26.125C1.375 27.1328 4.85512 28.875 12.3282 29.414C13.7294 29.513 15.1209 29.6106 16.5289 29.5625C16.8534 29.5625 17.1655 29.5625 17.4762 29.5501C17.8736 29.5336 18.1761 29.8292 18.1926 30.2087C18.2077 30.5882 17.9121 30.9086 17.534 30.9237C17.193 30.9375 16.8534 30.9375 16.5 30.9375Z" fill="#B50097"/>
<path d="M21.2974 30.7312C20.944 30.7312 20.6429 30.4589 20.614 30.1001C20.5838 29.7219 20.8643 29.3892 21.2424 29.3576C28.3264 28.7787 31.625 27.0861 31.625 26.125C31.625 26.0507 31.5975 25.96 31.5453 25.8555C31.3761 25.5158 31.5136 25.1033 31.8519 24.9328C32.1888 24.761 32.604 24.8985 32.7759 25.2395C32.9244 25.5365 33 25.8348 33 26.125C33 29.5116 24.0873 30.5057 21.3551 30.7298C21.3373 30.7312 21.3166 30.7312 21.2974 30.7312Z" fill="#B50097"/>
</g>
<defs>
<clipPath id="clip0_2_1620">
<rect width="33" height="33" fill="white"/>
</clipPath>
</defs>
</svg>
