<svg width="41" height="41" viewBox="0 0 41 41" fill="none" xmlns="http://www.w3.org/2000/svg">
<g clip-path="url(#clip0_2_1590)">
<path d="M21.5138 19.487C21.2007 19.1739 20.6938 19.1739 20.3807 19.487C20.0684 19.7993 20.0684 20.3062 20.3807 20.6193C20.6938 20.9316 21.2007 20.9316 21.5138 20.6193C21.8262 20.3062 21.8262 19.7993 21.5138 19.487Z" fill="#0073C6"/>
<path d="M31.7055 9.29473C30.1408 7.73008 27.6078 7.73 26.043 9.29473C24.4823 10.8554 24.4823 13.3954 26.0432 14.9574C27.6044 16.5176 30.1445 16.5182 31.7055 14.9572C33.2701 13.3926 33.2704 10.8595 31.7055 9.29473ZM30.5731 13.8247C29.6367 14.7611 28.1125 14.7611 27.1757 13.8248C26.2392 12.8877 26.2391 11.3635 27.1755 10.4272C28.1143 9.48844 29.6342 9.48828 30.5731 10.4272C31.5118 11.3659 31.512 12.8858 30.5731 13.8247Z" fill="#0073C6"/>
<path d="M40.7653 0.234556C40.608 0.0773632 40.3934 -0.00783979 40.1703 0.000568394C39.9892 0.00705471 35.6782 0.180343 30.5537 1.99163C26.4473 3.44152 23.0245 5.51738 20.3804 8.16156C19.7879 8.75405 19.2113 9.38235 18.6597 10.0351C16.0453 8.49612 13.9503 8.97867 12.6259 9.68744C9.57642 11.3194 7.6889 15.7506 7.6889 18.9201C7.68914 19.2439 7.88429 19.536 8.18347 19.6599C8.28252 19.701 8.38662 19.7209 8.48976 19.7209C8.69821 19.7209 8.90297 19.6395 9.05616 19.4863C10.6644 17.8781 12.648 17.9787 13.296 18.0639L13.5764 18.3444C13.0245 19.6576 12.5799 20.9635 12.2538 22.2337C12.1361 22.6933 12.1758 23.1797 12.3508 23.6246C11.5798 23.9799 10.836 24.5016 10.1883 25.1493C8.12701 27.2107 7.70844 32.2343 7.69163 32.4471C7.67321 32.6807 7.75793 32.9107 7.92361 33.0764C8.0744 33.2271 8.27836 33.3109 8.48976 33.3109C8.51074 33.3109 8.5318 33.3101 8.55287 33.3084C8.76571 33.2917 13.7895 32.8731 15.8508 30.8119C16.4982 30.1644 17.0198 29.4207 17.3751 28.6498C17.8462 28.835 18.3309 28.8579 18.7669 28.7462C20.0364 28.4202 21.3422 27.9757 22.6556 27.4238L22.9361 27.7042C23.0212 28.3523 23.1218 30.3359 21.5136 31.9439C21.2847 32.1729 21.2162 32.5174 21.3401 32.8165C21.464 33.1158 21.756 33.3108 22.0799 33.3108C25.2494 33.3108 29.6805 31.4233 31.3125 28.3739C32.0212 27.0496 32.5038 24.9546 30.9648 22.3402C31.6172 21.7887 32.2456 21.2122 32.8384 20.6194C35.4825 17.9753 37.5583 14.5525 39.0082 10.4464C40.8196 5.32159 40.9928 1.01051 40.9993 0.829536C41.0073 0.607319 40.9225 0.391829 40.7653 0.234556ZM9.47929 17.1977C9.97673 14.7903 11.4216 12.1486 13.3819 11.0995C14.6919 10.3985 16.1238 10.4672 17.6462 11.3005C16.3492 13.0064 15.2216 14.8441 14.2817 16.7848C14.2698 16.7775 14.1257 16.5962 13.8579 16.5359C13.7478 16.511 11.629 16.0552 9.47929 17.1977ZM14.7183 29.6793C13.6172 30.7804 11.0343 31.3611 9.40177 31.5982C9.63896 29.9656 10.2198 27.3828 11.3208 26.2818C11.9374 25.6652 12.6523 25.1977 13.3709 24.9344L16.0657 27.6292C15.8024 28.3478 15.335 29.0627 14.7183 29.6793ZM18.3691 27.1947C18.1373 27.2541 17.8689 27.1669 17.6693 26.9677C16.6334 25.9317 16.2281 25.5265 16.1009 25.3994C15.8677 25.1662 15.2959 24.5944 14.0328 23.3312C13.8331 23.1311 13.746 22.8628 13.8052 22.6314C14.0617 21.6325 14.3971 20.6077 14.805 19.573L21.4271 26.195C20.3922 26.603 19.3676 26.9384 18.3691 27.1947ZM29.9006 27.6182C28.8514 29.5784 26.2098 31.0233 23.8025 31.5207C24.5701 30.0763 24.7393 28.2377 24.4588 27.1227C24.3937 26.8638 24.2248 26.7336 24.2153 26.7183C26.1558 25.7784 27.9936 24.6508 29.6995 23.3538C30.5329 24.8764 30.6015 26.3084 29.9006 27.6182ZM31.7061 19.487C30.9845 20.2085 30.2075 20.9056 29.3966 21.5588C27.4473 23.1283 25.3019 24.4577 23.0129 25.5161L15.484 17.9873C16.5423 15.6982 17.8718 13.5527 19.4411 11.6037C20.0949 10.7923 20.7919 10.0152 21.5132 9.29402C23.8855 6.92163 26.9472 5.03355 30.6157 3.67447L37.3256 10.3844C35.9667 14.0528 34.0786 17.1145 31.7061 19.487ZM37.9018 8.69544L32.3046 3.09831C35.3541 2.15114 38.007 1.79648 39.3312 1.66899C39.2036 2.9934 38.8488 5.64631 37.9018 8.69544Z" fill="#0073C6"/>
<path d="M19.2484 33.0761C18.9356 32.7634 18.4285 32.7636 18.1159 33.0763L15.8513 35.3417C15.5386 35.6545 15.5387 36.1615 15.8514 36.4742C16.1643 36.7868 16.6713 36.7868 16.984 36.474L19.2486 34.2086C19.5612 33.8958 19.5611 33.3887 19.2484 33.0761Z" fill="#0073C6"/>
<path d="M7.92408 21.7517C7.61146 21.4389 7.10448 21.4389 6.79162 21.7515L4.52621 24.0161C4.21343 24.3288 4.21335 24.8358 4.52597 25.1486C4.83852 25.4612 5.34549 25.4615 5.65844 25.1488L7.92384 22.8842C8.23663 22.5715 8.23671 22.0645 7.92408 21.7517Z" fill="#0073C6"/>
<path d="M13.5863 34.2094C13.2738 33.8967 12.7666 33.8967 12.4539 34.2093L7.02937 39.633C6.71658 39.9457 6.71658 40.4528 7.02929 40.7655C7.34183 41.0782 7.84897 41.0783 8.16175 40.7655L13.5862 35.3419C13.899 35.0292 13.899 34.5221 13.5863 34.2094Z" fill="#0073C6"/>
<path d="M7.18003 34.2094C6.86741 33.8967 6.36027 33.8967 6.04757 34.2093L0.623087 39.633C0.310303 39.9457 0.310303 40.4528 0.623007 40.7655C0.935551 41.0782 1.44269 41.0783 1.75547 40.7655L7.17995 35.3419C7.49274 35.0292 7.49274 34.5221 7.18003 34.2094Z" fill="#0073C6"/>
<path d="M6.79078 27.4138C6.47816 27.1012 5.97102 27.1012 5.65832 27.4139L0.23464 32.8383C-0.078064 33.1511 -0.078064 33.6581 0.23472 33.9709C0.547425 34.2836 1.05448 34.2836 1.36718 33.9708L6.79086 28.5463C7.10357 28.2335 7.10357 27.7266 6.79078 27.4138Z" fill="#0073C6"/>
<path d="M24.9109 16.0891C24.5981 15.7764 24.0912 15.7764 23.7784 16.0891L22.6461 17.2214C22.3334 17.5341 22.3334 18.0412 22.6461 18.354C22.9588 18.6667 23.4658 18.6667 23.7786 18.354L24.9109 17.2217C25.2236 16.909 25.2236 16.4019 24.9109 16.0891Z" fill="#0073C6"/>
</g>
<defs>
<clipPath id="clip0_2_1590">
<rect width="41" height="41" fill="white"/>
</clipPath>
</defs>
</svg>
