<svg width="11" height="11" viewBox="0 0 11 11" fill="none" xmlns="http://www.w3.org/2000/svg">
<g clip-path="url(#clip0_2_7061)">
<path d="M10.998 11V10.9996H11.0008V6.96531C11.0008 4.99173 10.5759 3.47144 8.26863 3.47144C7.15946 3.47144 6.41512 4.0801 6.11125 4.65714H6.07917V3.65569H3.89154V10.9996H6.16946V7.36314C6.16946 6.40569 6.35096 5.47985 7.53667 5.47985C8.70496 5.47985 8.72237 6.57252 8.72237 7.42456V11H10.998Z" fill="black"/>
<path d="M0.182251 3.65613H2.46292V11H0.182251V3.65613Z" fill="black"/>
<path d="M1.32165 0C0.592441 0 0.000732422 0.591708 0.000732422 1.32092C0.000732422 2.05013 0.592441 2.65421 1.32165 2.65421C2.05086 2.65421 2.64257 2.05013 2.64257 1.32092C2.64211 0.591708 2.0504 0 1.32165 0V0Z" fill="black"/>
</g>
<defs>
<clipPath id="clip0_2_7061">
<rect width="11" height="11" fill="white" transform="translate(0.000732422)"/>
</clipPath>
</defs>
</svg>
